<svg xmlns="http://www.w3.org/2000/svg" width="17" height="17" viewBox="0 0 17 17">
  <path fill-rule="evenodd" d="M103.388889,140 L103.388889,136.190761 C103.388889,135.128334 102.543205,134.267066 101.5,134.267066 C100.456795,134.267066 99.6111111,135.128334 99.6111111,136.190761 L99.6111111,140 C99.6111111,140.552285 99.1633959,141 98.6111111,141 L93.9444444,141 C93.4228422,141 93,140.569366 93,140.038152 L93,133.218744 C93,132.773519 93.2018365,132.353231 93.5469175,132.079889 L100.920167,124.202611 C101.261216,123.932463 101.738784,123.932463 102.079833,124.202611 L109.453083,132.079889 C109.798163,132.353231 110,132.773519 110,133.218744 L110,140.038152 C110,140.569366 109.577158,141 109.055556,141 L104.388889,141 C103.836604,141 103.388889,140.552285 103.388889,140 Z" transform="translate(-93 -124)"/>
</svg>
